PathFileType	4	(X/Y/Z)	G:\Shared drives\HIT\Data\HapticPilot\Subject1\Edited\static1.trc
DataRate	CameraRate	NumFrames	NumMarkers	Units	OrigDataRate	OrigDataStartFrame	OrigNumFrames
50.00	50.00	       4	38	mm	50.00	142	       227
Frame#	Time	r_knee			r_shank(antsup)			r_ankle			r_calc			r_5meta			r_toe			L_knee			L_shank(ant_sup)			L_ankle			L_calc			L_5meta			L_toe			r_mknee			r_mankle			L_mknee			L_mankle			r_sh2			r_sh3			r_sh4			L_sh2			L_sh3			r_thigh1			r_thigh2			r_thigh3			r_thigh4			r_thigh5			L_thigh1			L_thigh2			L_thigh3			L_thigh4			r.ASIS			r.PSIS			L.ASIS			L.PSIS			C7			R_Shoulder			L_Shoulder			Sternum			
		X1	Y1	Z1	X2	Y2	Z2	X3	Y3	Z3	X4	Y4	Z4	X5	Y5	Z5	X6	Y6	Z6	X7	Y7	Z7	X8	Y8	Z8	X9	Y9	Z9	X10	Y10	Z10	X11	Y11	Z11	X12	Y12	Z12	X13	Y13	Z13	X14	Y14	Z14	X15	Y15	Z15	X16	Y16	Z16	X17	Y17	Z17	X18	Y18	Z18	X19	Y19	Z19	X20	Y20	Z20	X21	Y21	Z21	X22	Y22	Z22	X23	Y23	Z23	X24	Y24	Z24	X25	Y25	Z25	X26	Y26	Z26	X27	Y27	Z27	X28	Y28	Z28	X29	Y29	Z29	X30	Y30	Z30	X31	Y31	Z31	X32	Y32	Z32	X33	Y33	Z33	X34	Y34	Z34	X35	Y35	Z35	X36	Y36	Z36	X37	Y37	Z37	X38	Y38	Z38	

142	2.820	775.19513	409.27234	578.29785	789.07385	404.49283	491.85574	735.20038	409.13934	114.35820	646.56531	452.19388	71.37051	847.13220	382.26288	39.34475	886.24408	445.11301	73.40245	769.17108	732.48688	573.00647	793.59662	733.70868	456.19897	705.55042	731.96417	113.55811	629.91986	681.24005	73.69124	821.03613	777.88196	42.42182	868.27557	721.39166	70.79855	773.17206	535.27032	557.40436	747.27057	505.33978	120.75189	786.84839	609.98315	562.21472	737.11871	642.16803	120.79562	785.25824	401.21051	371.65408	714.03723	392.52148	491.80341	703.24237	386.07162	375.89673	705.75537	752.30212	476.42520	693.49530	753.46741	354.28455	846.88129	392.71564	898.26782	844.49963	395.07947	783.23236	798.93219	382.58066	750.75745	733.66449	382.78976	893.38159	738.15906	394.08463	776.13495	861.21185	752.43988	838.76111	861.05988	743.07404	700.72253	746.09778	771.93866	838.38696	748.15741	752.64508	704.32288	872.02319	446.41476	1093.92102	683.21350	540.51208	1127.04773	882.70306	704.12000	1095.43701	691.94348	622.70569	1125.86255	730.95233	588.59991	1608.59680	774.37836	422.98126	1582.88110	800.14539	763.99060	1575.81152	873.13196	580.11548	1536.87671	
143	2.840	775.16785	409.20682	578.18011	789.11896	404.44128	491.81149	735.19153	409.12903	114.34805	646.55096	452.18588	71.41740	847.16779	382.21851	39.38337	886.23438	445.09866	73.40163	769.15808	732.46838	572.96118	793.59198	733.70325	456.22296	705.58673	731.96344	113.54108	629.93164	681.23468	73.64623	821.05493	777.87476	42.40333	868.28369	721.42004	70.80122	773.11749	535.22003	557.19080	747.28064	505.36349	120.78189	786.84613	609.90094	562.18518	737.17487	642.17145	120.77918	785.25336	401.19064	371.56805	714.04285	392.50598	491.77283	703.14197	386.08115	375.89377	705.78308	752.32526	476.48010	693.56433	753.61401	354.29718	846.95007	392.73840	898.22614	844.61414	395.00632	783.18372	798.97894	382.46466	750.71466	733.76978	383.04364	893.36914	738.28345	394.16501	776.09686	861.35803	752.39722	838.74353	861.11792	743.03564	700.68097	746.26886	772.00775	838.39044	748.32715	752.63196	704.35706	872.08252	446.34180	1093.88184	683.37646	540.54266	1127.06177	882.89532	704.09247	1095.40234	692.23669	622.68848	1125.85071	731.14856	588.61487	1608.55713	774.36108	423.01111	1582.88574	800.33032	763.94360	1575.72229	873.23511	580.06781	1536.91028	
144	2.860	775.07983	409.19620	577.90411	789.06653	404.42258	491.79617	735.21039	409.10861	114.33171	646.53705	452.22623	71.39991	847.14014	382.24823	39.34818	886.21918	445.10303	73.39790	769.11523	732.46851	572.99011	793.53992	733.68036	456.23230	705.57159	731.94128	113.53686	629.95032	681.21570	73.71116	821.03601	777.88684	42.43019	868.28156	721.40521	70.78587	773.02686	535.12457	556.81042	747.23773	505.38165	120.75814	786.75562	609.89502	562.16760	737.21851	642.19305	120.76128	785.22089	401.19040	371.55609	714.02234	392.49805	491.73798	703.13354	386.05899	375.85510	705.72150	752.25519	476.43140	693.46112	753.48370	354.34824	847.02106	392.81412	898.18610	844.74512	394.90848	783.14923	799.02356	382.28860	750.66852	733.82306	383.31973	893.33636	738.39990	394.11084	776.04767	861.52393	752.28662	838.70862	861.19989	742.94818	700.62549	746.37933	772.03668	838.38708	748.40112	752.57135	704.32544	872.21124	446.26785	1093.83997	683.45343	540.53363	1127.13098	883.09900	704.03363	1095.40784	692.37115	622.75836	1125.86670	731.25867	588.59918	1608.56616	774.34442	423.00507	1582.87866	800.47577	763.91333	1575.65649	873.23541	580.01501	1536.98547	
145	2.880	775.01740	409.09579	577.47870	789.02844	404.35965	491.66907	735.17310	409.12375	114.33463	646.55389	452.15402	71.49050	847.14233	382.23920	39.34230	886.22192	445.06567	73.45326	769.04712	732.45142	573.02020	793.45428	733.71527	456.27246	705.62866	731.95270	113.58537	629.90741	681.22205	73.74043	821.05627	777.85645	42.44660	868.29095	721.41998	70.81565	773.01318	535.03961	556.36035	747.25360	505.38779	120.80275	786.67688	609.85858	562.14709	737.13843	642.13275	120.74580	785.12994	401.19800	371.47864	713.95178	392.45370	491.68460	703.09009	386.05139	375.80515	705.63293	752.25549	476.44412	693.43420	753.53583	354.29391	847.15131	393.02222	898.04895	844.68842	394.69727	783.04199	799.17548	382.06750	750.58868	733.96838	383.62860	893.33936	738.56708	394.05820	775.99432	861.62726	752.18469	838.71149	861.28058	742.89569	700.67444	746.53064	772.04901	838.38940	748.56635	752.55548	704.35327	872.31342	446.21539	1093.83875	683.57562	540.54199	1127.14978	883.23438	703.95441	1095.35400	692.54071	622.69836	1125.92737	731.38977	588.56183	1608.60620	774.35144	422.97955	1582.89746	800.55499	763.84088	1575.68652	873.29907	579.89471	1536.93823	
